<?xml version="1.0" standalone="no"?>
<!DOCTYPE svg PUBLIC "-//W3C//DTD SVG 20010904//EN"
 "http://www.w3.org/TR/2001/REC-SVG-20010904/DTD/svg10.dtd">
<svg version="1.0" xmlns="http://www.w3.org/2000/svg"
 width="280.000000pt" height="280.000000pt" viewBox="0 0 280.000000 280.000000"
 preserveAspectRatio="xMidYMid meet">

<g transform="translate(0.000000,280.000000) scale(0.100000,-0.100000)"
fill="white" stroke="none">
<path d="M0 1400 l0 -1400 1400 0 1400 0 0 1400 0 1400 -1400 0 -1400 0 0
-1400z m1968 758 c6 -6 12 -25 12 -44 0 -30 -49 -82 -631 -663 -581 -582 -633
-631 -663 -631 -40 0 -59 20 -59 61 0 27 73 104 624 656 343 343 633 628 644
633 21 9 52 4 73 -12z m126 -714 c9 -8 16 -29 16 -46 0 -28 -39 -71 -338 -370
-299 -299 -342 -338 -370 -338 -39 0 -62 23 -62 62 0 26 43 73 339 369 296
296 343 339 369 339 17 0 38 -7 46 -16z"/>
</g>
</svg>
